<svg xmlns="http://www.w3.org/2000/svg" height="512" viewBox="0 0 512.00003 512.00003" width="512" class=""><g><path d="m477.867188 469.332031-20.480469 27.308594c-3.234375 4.28125-8.285157 6.808594-13.652344 6.824219h-273.066406c-5.367188-.015625-10.421875-2.542969-13.65625-6.824219l-20.476563-27.308594 157.863282-15.785156 12.800781-1.28125zm0 0" fill="#607d8b" data-original="#607D8B" class="active-path" style="fill:#FF5722" data-old_color="#D85406"></path><path d="m503.464844 102.398438c-.066406 9.398437-7.667969 17-17.066406 17.066406h-358.398438c-9.414062-.027344-17.039062-7.652344-17.066406-17.066406.070312-9.394532 7.667968-16.996094 17.066406-17.066407h358.398438c9.414062.03125 17.039062 7.652344 17.066406 17.066407zm0 0" fill="#607d8b" data-original="#607D8B" class="active-path" style="fill:#FF5722" data-old_color="#D85406"></path><path d="m452.265625 469.332031-20.480469 27.308594c-3.234375 4.28125-8.285156 6.808594-13.652344 6.824219h-247.464843c-5.367188-.015625-10.421875-2.542969-13.65625-6.824219l-20.476563-27.308594 157.863282-15.785156zm0 0" fill="#cfd8dc" data-original="#CFD8DC" class="" style="fill:#FFE000" data-old_color="#CFD8DC"></path><path d="m477.867188 102.398438c-.070313 9.398437-7.671876 17-17.066407 17.066406h-332.800781c-9.414062-.027344-17.039062-7.652344-17.066406-17.066406.070312-9.394532 7.667968-16.996094 17.066406-17.066407h332.800781c9.414063.03125 17.039063 7.652344 17.066407 17.066407zm0 0" fill="#cfd8dc" data-original="#CFD8DC" class="" style="fill:#FFE000" data-old_color="#CFD8DC"></path><path d="m59.734375 426.667969-6.921875 27.671875c-.949219 3.796875-4.363281 6.460937-8.277344 6.460937h-20.804687c-3.914063 0-7.324219-2.664062-8.277344-6.460937l-6.917969-27.671875 25.597656-17.066407zm0 0" fill="#3f51b5" data-original="#3F51B5" class="" style="fill:#FF6D00" data-old_color="#FF9300"></path><path d="m42.667969 358.398438h68.265625v51.203124h-68.265625zm0 0" fill="#cfd8dc" data-original="#CFD8DC" class="" style="fill:#FFE000" data-old_color="#CFD8DC"></path><path d="m145.066406 349.867188v85.332031h-34.132812c-9.414063-.027344-17.039063-7.652344-17.066406-17.066407v-68.265624zm0 0" fill="#3f51b5" data-original="#3F51B5" class="" style="fill:#FF6D00" data-old_color="#FF9300"></path><path d="m93.867188 358.398438v-170.664063c0-9.425781 7.640624-17.066406 17.066406-17.066406h34.132812v187.730469zm0 0" fill="#3f51b5" data-original="#3F51B5" class="" style="fill:#FF6D00" data-old_color="#FF9300"></path><path d="m136.535156 110.933594h341.332032v358.398437h-341.332032zm0 0" fill="#1566c0" data-original="#1566C0" class="" style="fill:#D35C0D" data-old_color="#FF6600"></path><path d="m136.535156 110.933594h315.730469v358.398437h-315.730469zm0 0" fill="#2296f3" data-original="#2296F3" class="" style="fill:#FF8400" data-old_color="#FFB200"></path><path d="m8.535156 341.332031h34.132813c9.425781 0 17.066406 7.640625 17.066406 17.066407v68.269531h-51.199219zm0 0" fill="#3f51b5" data-original="#3F51B5" class="" style="fill:#FF6D00" data-old_color="#FF9300"></path><path d="m358.398438 375.464844c0 28.277344-22.921876 51.203125-51.199219 51.203125-28.277344 0-51.199219-22.925781-51.199219-51.203125 0-28.273438 22.921875-51.199219 51.199219-51.199219 28.277343 0 51.199219 22.925781 51.199219 51.199219zm0 0" fill="#ff5722" data-original="#FF5722" class=""></path><path d="m392.535156 25.601562v24.914063l-26.539062.085937-144.128906.511719v-25.511719c.027343-9.414062 7.652343-17.039062 17.066406-17.066406h136.53125c9.414062.027344 17.039062 7.652344 17.070312 17.066406zm0 0" fill="#1566c0" data-original="#1566C0" class="" style="fill:#D35C0D" data-old_color="#FF6600"></path><path d="m453.71875 85.332031h-290.132812c0-13.992187 22.867187-26.367187 58.28125-34.21875.140624-.035156.28125-.0625.425781-.082031 23.988281-4.953125 48.386719-7.667969 72.875-8.109375 4.4375-.167969 8.960937-.253906 13.484375-.253906 18.996094-.050781 37.976562 1.089843 56.832031 3.410156 9.554687 1.195313 18.6875 2.648437 27.050781 4.4375 37.03125 7.765625 61.183594 20.480469 61.183594 34.816406zm0 0" fill="#1566c0" data-original="#1566C0" class="" style="fill:#D35C0D" data-old_color="#FF6600"></path><path d="m365.484375 25.601562v24.914063l-143.191406.515625h-.425781v-25.429688c.027343-9.414062 7.652343-17.039062 17.066406-17.066406h109.480468c9.414063.027344 17.039063 7.652344 17.070313 17.066406zm0 0" fill="#2296f3" data-original="#2296F3" class="" style="fill:#FF8400" data-old_color="#FFB200"></path><path d="m426.667969 85.332031h-263.082031c0-13.992187 22.867187-26.367187 58.28125-34.21875v-4.691406c19.808593-2.542969 39.761718-3.796875 59.734374-3.753906 4.605469 0 9.128907.085937 13.566407.253906 23.617187.433594 47.148437 2.976563 70.316406 7.59375.167969 0 .339844.085937.511719.085937 36.777344 7.765626 60.671875 20.480469 60.671875 34.730469zm0 0" fill="#2296f3" data-original="#2296F3" class="" style="fill:#FF8400" data-old_color="#FFB200"></path><path d="m486.398438 76.800781h-26.144532c-6.332031-14.839843-28.886718-25.941406-59.1875-33.074219v-18.125c0-14.140624-11.460937-25.601562-25.601562-25.601562h-136.53125c-14.140625 0-25.601563 11.460938-25.601563 25.601562v18.773438c-28.867187 7.148438-50.199219 18.019531-56.320312 32.425781h-29.011719c-14.136719 0-25.601562 11.460938-25.601562 25.597657 0 14.140624 11.464843 25.601562 25.601562 25.601562v34.132812h-17.066406c-14.140625 0-25.601563 11.460938-25.601563 25.601563v162.132813h-18.636719c-3.601562-10.191407-13.21875-17.023438-24.027343-17.066407h-18.195313l42.359375-63.53125c1.691407-2.535156 1.902344-5.78125.550781-8.515625-1.347656-2.734375-4.054687-4.539062-7.097656-4.738281-3.042968-.195313-5.960937 1.246094-7.652344 3.78125l-51.199218 76.800781c-.109375.234375-.207032.472656-.289063.714844-.273437.503906-.492187 1.03125-.648437 1.582031-.175782.554688-.289063 1.125-.34375 1.703125 0 .265625-.152344.488282-.152344.753906v85.316407c.0507812.40625.128906.808593.238281 1.203125.042969.289062-.050781.578125 0 .851562l6.921875 27.664063c1.894532 7.613281 8.730469 12.953125 16.570313 12.945312h20.804687c7.832032 0 14.65625-5.328125 16.554688-12.925781l6.921875-27.664062c.066406-.292969 0-.582032 0-.855469.117187-.398438.199219-.808594.253906-1.21875v-8.535157h17.066406c0 14.140626 11.460938 25.601563 25.601563 25.601563h17.066406v25.597656c.042969.324219.109375.644531.195312.957031.082032 1.167969.457032 2.292969 1.09375 3.277344.121094.292969.257813.578125.417969.851563l20.480469 27.308593c4.839844 6.445313 12.417969 10.246094 20.480469 10.273438h273.066406c8.054687-.011719 15.636719-3.804688 20.480469-10.238281l20.476562-27.308594c.160156-.273437.300782-.558594.421875-.851563.628907-.984374 1.003907-2.113281 1.089844-3.277343.089844-.324219.15625-.65625.195313-.992188v-341.332031c14.140624 0 25.601562-11.460938 25.601562-25.601562 0-14.136719-11.460938-25.597657-25.601562-25.597657zm-256-51.199219c0-4.714843 3.820312-8.535156 8.535156-8.535156h136.53125c4.714844 0 8.535156 3.820313 8.535156 8.535156v14.675782c-24.90625-4.171875-50.121094-6.226563-75.375-6.144532-26.21875-.101562-52.398438 2.125-78.226562 6.648438zm78.226562 25.597657c70.902344 0 114.933594 13.894531 130.304688 25.601562h-260.582032c15.359375-11.707031 59.375-25.601562 130.277344-25.601562zm-206.226562 136.535156c0-4.714844 3.820312-8.535156 8.535156-8.535156h17.066406v170.667969h-25.601562zm-51.199219 170.664063v59.734374h-34.132813v-68.265624h25.601563c4.710937 0 8.53125 3.820312 8.53125 8.53125zm-6.664063 93.867187h-20.8125l-4.265625-17.066406h29.34375zm23.730469-51.199219v-34.132812h17.066406v34.132812zm42.667969 25.601563c-4.714844 0-8.535156-3.820313-8.535156-8.535157v-51.199218h25.601562v59.734375zm339.625 64.851562c-1.609375 2.148438-4.140625 3.414063-6.824219 3.414063h-273.066406c-2.6875 0-5.214844-1.265625-6.828125-3.414063l-10.238282-13.652343h307.199219zm18.773437-30.71875h-324.265625v-332.800781h324.265625zm17.066407-349.867187h-358.398438c-4.710938 0-8.535156-3.820313-8.535156-8.535156 0-4.710938 3.824218-8.53125 8.535156-8.53125h358.398438c4.714843 0 8.535156 3.820312 8.535156 8.53125 0 4.714843-3.820313 8.535156-8.535156 8.535156zm0 0" data-original="#000000" class="" style="fill:#000000"></path><path d="m221.867188 384c4.710937 0 8.53125-3.820312 8.53125-8.535156 0-42.414063 34.386718-76.796875 76.800781-76.796875 42.417969 0 76.800781 34.382812 76.800781 76.796875 0 4.714844 3.820312 8.535156 8.535156 8.535156 4.710938 0 8.53125-3.820312 8.53125-8.535156 0-51.839844-42.023437-93.863282-93.867187-93.863282-51.839844 0-93.867188 42.023438-93.867188 93.863282 0 2.265625.898438 4.433594 2.5 6.035156 1.601563 1.601562 3.769531 2.5 6.035157 2.5zm0 0" data-original="#000000" class="" style="fill:#000000"></path><path d="m170.667969 162.132812h17.066406c4.710937 0 8.53125-3.820312 8.53125-8.53125 0-4.714843-3.820313-8.535156-8.53125-8.535156h-17.066406c-4.714844 0-8.535157 3.820313-8.535157 8.535156 0 4.710938 3.820313 8.53125 8.535157 8.53125zm0 0" data-original="#000000" class="" style="fill:#000000"></path><path d="m221.867188 162.132812h110.933593c4.710938 0 8.53125-3.820312 8.53125-8.53125 0-4.714843-3.820312-8.535156-8.53125-8.535156h-110.933593c-4.714844 0-8.535157 3.820313-8.535157 8.535156 0 4.710938 3.820313 8.53125 8.535157 8.53125zm0 0" data-original="#000000" class="" style="fill:#000000"></path><path d="m359.03125 345.90625c-.050781-.101562 0-.210938-.101562-.304688-.101563-.09375-.1875-.1875-.265626-.300781-10.675781-18.304687-30.273437-29.558593-51.464843-29.558593-21.191407 0-40.785157 11.253906-51.464844 29.558593-.074219.121094-.195313.1875-.261719.308594-.070312.117187-.054687.203125-.105468.304687-10.535157 18.300782-10.535157 40.824219 0 59.121094.050781.101563.042968.210938.105468.308594.058594.09375.261719.324219.382813.5 10.703125 18.195312 30.234375 29.367188 51.34375 29.367188s40.640625-11.171876 51.347656-29.367188c.117187-.175781.28125-.3125.382813-.5.101562-.191406.050781-.207031.101562-.308594 10.535156-18.296875 10.535156-40.820312 0-59.121094zm-43.296875 71.375v-7.679688c0-4.714843-3.820313-8.535156-8.535156-8.535156-4.710938 0-8.53125 3.820313-8.53125 8.535156v7.679688c-9.015625-1.898438-17.171875-6.671875-23.238281-13.601562l6.476562-3.746094c4.046875-2.375 5.421875-7.566406 3.074219-11.628906-2.34375-4.0625-7.527344-5.472657-11.605469-3.152344l-6.46875 3.738281c-3.164062-8.664063-3.164062-18.167969 0-26.828125l6.46875 3.734375c2.640625 1.550781 5.910156 1.566406 8.566406.039063 2.652344-1.523438 4.289063-4.355469 4.28125-7.417969-.007812-3.0625-1.652344-5.886719-4.316406-7.398438l-6.476562-3.746093c6.066406-6.9375 14.21875-11.71875 23.238281-13.621094v7.679687c0 4.714844 3.820312 8.535157 8.53125 8.535157 4.714843 0 8.535156-3.820313 8.535156-8.535157v-7.679687c9.019531 1.914062 17.175781 6.703125 23.234375 13.65625l-6.476562 3.746094c-2.660157 1.511718-4.308594 4.335937-4.316407 7.398437-.003906 3.0625 1.628907 5.890625 4.285157 7.417969 2.65625 1.523437 5.921874 1.511718 8.566406-.039063l6.46875-3.738281c3.160156 8.664062 3.160156 18.167969 0 26.828125l-6.46875-3.734375c-4.078125-2.320312-9.261719-.914062-11.609375 3.148438-2.34375 4.0625-.972657 9.257812 3.074219 11.628906l6.476562 3.746094c-6.070312 6.917968-14.226562 11.679687-23.234375 13.570312zm0 0" data-original="#000000" class="" style="fill:#000000"></path></g> </svg>